<?xml version="1.0" standalone="no"?>
<!DOCTYPE svg PUBLIC "-//W3C//DTD SVG 20010904//EN"
 "http://www.w3.org/TR/2001/REC-SVG-20010904/DTD/svg10.dtd">
<svg version="1.0" xmlns="http://www.w3.org/2000/svg"
 width="16.000000pt" height="16.000000pt" viewBox="0 0 16.000000 16.000000"
 preserveAspectRatio="xMidYMid meet">

<g transform="translate(0.000000,16.000000) scale(0.100000,-0.100000)"
fill="#000000" stroke="none">
<path d="M17 142 c-12 -13 -17 -37 -17 -81 l0 -62 58 3 c56 3 57 4 60 34 2 18
12 40 23 50 24 22 25 44 0 44 -10 0 -21 7 -25 15 -8 22 -79 20 -99 -3z m93
-11 c0 -25 -17 -35 -55 -35 -28 1 -28 1 -3 -3 27 -4 27 -5 12 -28 -23 -35 -15
-48 19 -30 25 13 27 12 27 -6 0 -16 -7 -19 -50 -19 l-50 0 0 55 c0 42 3 55 15
55 8 0 15 7 15 15 0 10 11 15 35 15 28 0 35 -4 35 -19z m0 -56 c-13 -14 -28
-25 -34 -25 -5 0 3 13 19 30 16 16 31 28 33 25 3 -3 -5 -16 -18 -30z"/>
<path d="M68 133 c7 -3 16 -2 19 1 4 3 -2 6 -13 5 -11 0 -14 -3 -6 -6z"/>
<path d="M63 113 c9 -2 23 -2 30 0 6 3 -1 5 -18 5 -16 0 -22 -2 -12 -5z"/>
<path d="M25 70 c-3 -5 -2 -10 4 -10 5 0 13 5 16 10 3 6 2 10 -4 10 -5 0 -13
-4 -16 -10z"/>
</g>
</svg>
