<?xml version="1.0" standalone="no"?>
<!DOCTYPE svg PUBLIC "-//W3C//DTD SVG 20010904//EN"
 "http://www.w3.org/TR/2001/REC-SVG-20010904/DTD/svg10.dtd">
<svg version="1.0" xmlns="http://www.w3.org/2000/svg"
 width="512.000000pt" height="512.000000pt" viewBox="0 0 512.000000 512.000000"
 preserveAspectRatio="xMidYMid meet">
<metadata>
Created by potrace 1.16, written by Peter Selinger 2001-2019
</metadata>
<g transform="translate(0.000000,512.000000) scale(0.100000,-0.100000)"
fill="#000000" stroke="none">
<path d="M2130 4791 c-78 -25 -157 -99 -178 -169 -7 -22 -12 -87 -12 -146 l0
-106 -543 0 -543 0 -52 -26 c-59 -29 -96 -69 -126 -134 -16 -37 -20 -66 -20
-160 -1 -106 1 -119 27 -172 46 -94 123 -144 239 -155 l63 -5 139 -1482 c176
-1882 158 -1722 190 -1783 14 -28 42 -65 63 -82 78 -64 19 -61 1203 -61 1219
0 1135 -6 1221 80 34 34 52 62 63 101 11 35 68 611 164 1639 l148 1585 59 7
c122 15 195 61 243 152 24 47 26 61 27 171 0 101 -3 127 -21 165 -30 65 -68
105 -126 134 l-52 26 -537 0 -536 0 -5 113 c-3 67 -11 127 -21 148 -20 50 -82
116 -131 142 -40 22 -50 22 -481 24 -242 1 -451 -2 -465 -6z m852 -228 c15
-13 18 -32 18 -105 l0 -88 -420 0 -420 0 0 87 c0 134 -37 123 418 123 345 0
387 -2 404 -17z m1294 -438 c19 -30 16 -147 -4 -167 -19 -19 -3365 -19 -3384
0 -18 18 -18 153 1 175 12 16 143 17 1692 17 l1679 0 16 -25z m-326 -425 c0
-17 -65 -726 -145 -1577 -80 -850 -145 -1549 -145 -1554 0 -4 -7 -15 -16 -23
-14 -14 -124 -16 -1064 -16 -940 0 -1050 2 -1064 16 -9 8 -16 21 -16 28 0 8
-65 709 -145 1559 -80 851 -145 1558 -145 1572 l0 25 1370 0 1370 0 0 -30z"/>
<path d="M1560 3408 c-35 -10 -93 -48 -118 -78 -27 -31 -52 -96 -52 -135 0
-93 221 -2132 237 -2174 22 -61 64 -105 125 -131 45 -19 64 -22 135 -17 67 4
92 10 135 34 59 34 106 98 118 162 10 54 -213 2150 -235 2206 -19 52 -68 102
-120 126 -45 21 -165 24 -225 7z"/>
<path d="M2475 3411 c-70 -18 -125 -63 -161 -131 -18 -34 -19 -81 -19 -1146
l0 -1111 30 -48 c41 -66 95 -103 173 -116 130 -23 237 19 297 116 l30 48 0
1111 c0 1065 -1 1112 -19 1146 -48 90 -114 130 -225 136 -42 2 -89 0 -106 -5z"/>
<path d="M3335 3402 c-52 -25 -93 -67 -117 -119 -14 -33 -42 -261 -129 -1075
-60 -568 -110 -1061 -110 -1095 -2 -111 74 -207 182 -232 159 -37 288 18 333
141 15 41 236 2081 236 2173 -1 78 -60 163 -139 201 -55 27 -204 30 -256 6z"/>
</g>
</svg>
