<?xml version="1.0" standalone="no"?>
<!DOCTYPE svg PUBLIC "-//W3C//DTD SVG 20010904//EN"
 "http://www.w3.org/TR/2001/REC-SVG-20010904/DTD/svg10.dtd">
<svg version="1.0" xmlns="http://www.w3.org/2000/svg"
 width="512.000000pt" height="512.000000pt" viewBox="0 0 512.000000 512.000000"
 preserveAspectRatio="xMidYMid meet">

<g transform="translate(0.000000,512.000000) scale(0.100000,-0.100000)"
fill="#000000" stroke="none">
<path d="M490 4244 c-82 -21 -208 -87 -268 -139 -118 -105 -193 -252 -212
-416 -8 -65 -10 -575 -8 -1619 3 -1415 5 -1529 21 -1585 66 -229 240 -401 467
-462 61 -17 187 -18 2070 -18 2244 0 2050 -6 2210 72 104 51 222 169 273 273
75 154 71 93 75 1089 2 640 0 909 -8 948 -14 63 -59 121 -117 148 -74 35 -183
14 -240 -47 -55 -58 -53 -25 -53 -978 0 -642 -3 -894 -12 -928 -16 -64 -86
-134 -150 -150 -67 -17 -3889 -17 -3956 0 -69 17 -136 88 -152 159 -8 40 -10
446 -8 1574 3 1461 4 1521 22 1555 24 46 54 78 91 98 26 15 82 18 415 22 l385
5 47 28 c114 66 140 217 55 314 -64 72 -65 73 -502 72 -306 0 -402 -3 -445
-15z"/>
</g>
</svg>
